HIERARCHY
ROOT Hips
{
	OFFSET 0.00 0.00 0.00
	CHANNELS 6 Xposition Yposition Zposition Xrotation Yrotation Zrotation
	JOINT RightUpLeg
	{
		OFFSET -4.47808 0.00000 0.00000
		CHANNELS 3 Xrotation Yrotation Zrotation
		JOINT RightLeg
		{
			OFFSET 0.00000 -16.40577 0.00000
			CHANNELS 3 Xrotation Yrotation Zrotation
			JOINT RightFoot
			{
				OFFSET 0.00000 -14.64414 0.00000
				CHANNELS 3 Xrotation Yrotation Zrotation
				JOINT RightToeBase
				{
					OFFSET 0.00000 -1.50274 5.60831
					CHANNELS 3 Xrotation Yrotation Zrotation
					End Site
					{
						OFFSET 0.00000 0.00000 2.95275
					}
				}
			}
		}
	}
	JOINT LeftUpLeg
	{
		OFFSET 4.47808 0.00000 0.00000
		CHANNELS 3 Xrotation Yrotation Zrotation
		JOINT LeftLeg
		{
			OFFSET 0.00000 -16.40577 0.00000
			CHANNELS 3 Xrotation Yrotation Zrotation
			JOINT LeftFoot
			{
				OFFSET 0.00000 -14.64414 0.00000
				CHANNELS 3 Xrotation Yrotation Zrotation
				JOINT LeftToeBase
				{
					OFFSET 0.00000 -1.50274 5.60831
					CHANNELS 3 Xrotation Yrotation Zrotation
					End Site
					{
						OFFSET 0.00000 0.00000 2.95275
					}
				}
			}
		}
	}
	JOINT Spine
	{
		OFFSET 0.00000 6.06821 0.00000
		CHANNELS 3 Xrotation Yrotation Zrotation
		JOINT RightShoulder
		{
			OFFSET 0.00000 10.01392 0.00000
			CHANNELS 3 Xrotation Yrotation Zrotation
			JOINT RightArm
			{
				OFFSET -7.19022 0.00000 0.00000
				CHANNELS 3 Xrotation Yrotation Zrotation
				JOINT RightForeArm
				{
					OFFSET -10.17747 0.00000 0.00000
					CHANNELS 3 Yrotation Zrotation Xrotation
					JOINT RightHand
					{
						OFFSET -8.39211 0.00000 0.00000
						CHANNELS 3 Xrotation Yrotation Zrotation
						End Site
						{
							OFFSET -3.93700 0.00000 0.00000
						}
						JOINT RightHandThumb1
						{
							OFFSET 0.00000 0.00000 0.00000
							CHANNELS 3 Xrotation Zrotation Yrotation
							End Site
							{
								OFFSET 0.00000 0.00000 3.93700
							}
						}
					}
				}
			}
		}
		JOINT LeftShoulder
		{
			OFFSET 0.00000 10.01392 0.00000
			CHANNELS 3 Xrotation Yrotation Zrotation
			JOINT LeftArm
			{
				OFFSET 7.19022 0.00000 0.00000
				CHANNELS 3 Xrotation Yrotation Zrotation
				JOINT LeftForeArm
				{
					OFFSET 10.17747 0.00000 0.00000
					CHANNELS 3 Yrotation Zrotation Xrotation
					JOINT LeftHand
					{
						OFFSET 8.39211 0.00000 0.00000
						CHANNELS 3 Xrotation Yrotation Zrotation
						End Site
						{
							OFFSET 3.93700 0.00000 0.00000
						}
						JOINT LeftHandThumb1
						{
							OFFSET 0.00000 0.00000 0.00000
							CHANNELS 3 Xrotation Zrotation Yrotation
							End Site
							{
								OFFSET 0.00000 0.00000 3.93700
							}
						}
					}
				}
			}
		}
		JOINT Head
		{
			OFFSET 0.00000 15.77748 0.00000
			CHANNELS 3 Xrotation Yrotation Zrotation
			End Site
			{
				OFFSET 0.00000 4.52755 0.00000
			}
		}
	}
}
MOTION
Frames: 21
Frame Time: 0.008333
 -2.8512 33.2159 0.0409 6.2038 1.0398 2.8165 0.3797 -6.9227 -2.1676 1.6616 -0.0000 0.0000 -12.4212 -6.1319 0.5095 5.4169 0.0000 0.0000 0.8939 3.0366 1.1065 0.2499 -0.0000 -0.0000 -8.8732 3.8098 -8.9469 7.8622 0.0000 0.0000 -13.4484 -8.1449 -4.8125 -31.1217 -0.5528 -50.3102 -98.8693 9.8666 38.0788 151.0372 0.0000 -29.6565 2.7304 22.9646 -6.9689 32.8623 0.0000 -24.3270 17.0820 19.9059 11.8423 -150.8431 -75.9862 111.8313 -102.9589 -0.0000 53.0748 6.4462 -18.7186 19.3953 33.1476 -0.0000 26.2537 15.7439 7.9917 5.9991
 -2.8480 33.2172 0.0401 6.2901 0.9045 2.8393 0.2658 -6.8732 -2.1965 1.6689 0.0000 0.0000 -12.4082 -6.0597 0.5063 5.4020 -0.0000 0.0000 0.9181 3.1669 1.0831 0.0790 -0.0000 0.0000 -8.7922 3.7784 -9.0332 7.9496 -0.0000 -0.0000 -13.4685 -8.0473 -4.6805 -30.9999 -0.7877 -50.4976 -99.2023 10.0031 38.1340 151.0126 0.0000 -29.4423 2.6969 22.9822 -6.8790 32.8623 0.0000 -24.3270 17.0888 19.7356 11.6023 -150.2389 -75.5962 112.0296 -100.8887 -0.0000 52.5190 8.5608 -18.3257 25.5841 33.1476 -0.0000 26.2537 15.3991 8.0102 5.5927
 -2.8482 33.2163 0.0436 6.3651 0.7226 2.8571 0.1595 -6.8133 -2.2153 1.6954 0.0000 -0.0000 -12.4208 -5.9541 0.5208 5.4269 0.0000 0.0000 0.9611 3.3053 1.0640 -0.0679 0.0000 0.0000 -8.7400 3.7932 -9.0651 7.9223 0.0000 0.0000 -13.4784 -8.0967 -4.6255 -31.1024 -0.5260 -50.5175 -99.1467 9.9970 38.0140 151.0281 0.0000 -29.3974 2.6184 23.0298 -6.6674 32.8623 0.0000 -24.3270 17.2290 19.9939 11.3663 -149.6057 -75.4648 112.3891 -99.0154 -0.0000 51.7735 9.6931 -18.2917 28.5564 33.1476 -0.0000 26.2537 14.9488 8.2448 5.3923
 -2.8467 33.2160 0.0383 6.4938 0.4989 2.8895 -0.0482 -6.7486 -2.2516 1.7687 -0.0000 0.0000 -12.4451 -5.8140 0.5077 5.4324 -0.0000 0.0000 0.9230 3.4421 1.0298 -0.1710 0.0000 0.0000 -8.6946 3.8494 -9.1021 7.8894 -0.0000 -0.0000 -13.4846 -8.0099 -4.5647 -31.0638 -0.5096 -50.5330 -99.4436 10.0562 37.8356 150.9982 0.0000 -29.4207 2.5939 23.0481 -6.6008 32.8623 0.0000 -24.3270 17.3934 20.2448 11.1040 -149.3346 -75.2162 112.3725 -97.2295 -0.0000 50.9985 10.5308 -17.7118 31.4263 33.1476 -0.0000 26.2537 14.3788 8.3927 5.2023
 -2.8431 33.2170 0.0326 6.6275 0.2099 2.9342 -0.2538 -6.5766 -2.3072 1.8161 -0.0000 0.0000 -12.4437 -5.7108 0.5326 5.4084 -0.0000 0.0000 0.8825 3.6266 0.9771 -0.2510 0.0000 0.0000 -8.6626 3.9312 -9.1258 7.8897 -0.0000 -0.0000 -13.5390 -7.8262 -4.5141 -31.1728 -0.2142 -50.5357 -99.3808 10.0903 37.6818 150.9811 0.0000 -29.4279 2.6124 23.1131 -6.6299 32.8623 0.0000 -24.3270 17.5833 20.4567 10.8898 -148.7150 -75.2499 112.6537 -95.8523 -0.0000 50.3605 10.7676 -17.2310 32.7003 33.1476 -0.0000 26.2537 13.9360 8.4944 5.0326
 -2.8394 33.2172 0.0289 6.7660 -0.1343 2.9762 -0.4552 -6.3837 -2.3555 1.8367 -0.0000 0.0000 -12.4178 -5.5746 0.5435 5.3837 0.0000 -0.0000 0.8436 3.8515 0.9278 -0.3190 -0.0000 -0.0000 -8.6407 4.0220 -9.1289 7.8757 -0.0000 -0.0000 -13.6013 -7.4777 -4.4175 -31.1941 -0.0762 -50.6007 -99.4326 10.1615 37.6049 150.9457 0.0000 -29.2266 2.6641 23.1547 -6.7486 32.8623 0.0000 -24.3270 17.7894 20.5973 10.6839 -148.2357 -75.6688 112.8084 -95.1136 -0.0000 50.1759 10.5045 -16.4958 33.1451 33.1476 -0.0000 26.2537 13.5344 8.4943 4.8007
 -2.8387 33.2156 0.0299 6.8594 -0.4763 3.0066 -0.5438 -6.0642 -2.3837 1.7571 0.0000 -0.0000 -12.3702 -5.5399 0.5585 5.4715 -0.0000 -0.0000 0.8484 4.0299 0.8951 -0.3642 -0.0000 -0.0000 -8.6618 4.1663 -9.1423 7.9024 0.0000 -0.0000 -13.6176 -7.0147 -4.2920 -31.0653 -0.1423 -50.7125 -99.7555 10.2123 37.5645 150.9148 0.0000 -29.1023 2.6036 23.1486 -6.5983 32.8623 0.0000 -24.3270 18.0043 20.6557 10.5181 -147.8573 -76.1333 112.8805 -94.8842 -0.0000 50.1050 9.5046 -16.0508 31.1965 33.1476 -0.0000 26.2537 13.1642 8.4093 4.5055
 -2.8417 33.2161 0.0267 6.9556 -0.8037 3.0287 -0.6651 -5.8111 -2.3971 1.7232 0.0000 0.0000 -12.3176 -5.4584 0.5619 5.4945 -0.0000 -0.0000 0.8071 4.1570 0.8823 -0.3457 0.0000 0.0000 -8.7016 4.3389 -9.1145 7.9103 0.0000 0.0000 -13.6365 -6.5443 -4.1615 -30.9905 -0.2042 -50.7739 -100.0793 10.2659 37.6326 150.8679 0.0000 -29.0061 2.6101 23.1373 -6.6174 32.8623 0.0000 -24.3270 18.1612 20.6505 10.3508 -147.6249 -76.7820 112.7145 -94.9016 -0.0000 49.6893 8.5059 -15.4585 29.2969 33.1476 -0.0000 26.2537 12.8590 8.3420 4.1704
 -2.8449 33.2166 0.0228 7.0641 -1.1182 3.0465 -0.8031 -5.6773 -2.4042 1.6887 0.0000 -0.0000 -12.2475 -5.2840 0.5961 5.4465 0.0000 -0.0000 0.7370 4.2256 0.8722 -0.2999 0.0000 -0.0000 -8.7380 4.5732 -9.1157 7.8272 0.0000 0.0000 -13.6845 -6.2172 -4.0777 -31.0021 -0.0488 -50.7660 -100.3028 10.0670 37.7547 150.9398 0.0000 -28.8570 2.7348 23.0272 -6.9622 32.8623 0.0000 -24.3270 18.3068 20.8198 10.2417 -147.1220 -77.3202 112.8581 -95.1706 -0.0000 48.6707 7.2386 -14.3825 27.0822 33.1476 -0.0000 26.2537 12.5600 8.3511 3.9164
 -2.8450 33.2157 0.0196 7.1747 -1.3965 3.0746 -0.9245 -5.5816 -2.4187 1.6198 -0.0000 0.0000 -12.1875 -5.1274 0.5959 5.4957 -0.0000 0.0000 0.6512 4.2829 0.8470 -0.2348 -0.0000 -0.0000 -8.8105 4.7821 -9.0677 7.8653 0.0000 0.0000 -13.7727 -5.6649 -3.9545 -30.7980 -0.2047 -50.8503 -100.7265 10.0520 37.9074 150.9605 0.0000 -28.5256 2.6066 23.0960 -6.6199 32.8623 0.0000 -24.3270 18.4838 20.6374 10.2083 -146.1639 -78.0378 113.4830 -95.7720 -0.0000 47.2124 5.6505 -13.4511 23.0419 33.1476 -0.0000 26.2537 12.4375 8.1585 3.5470
 -2.8463 33.2139 0.0154 7.2798 -1.6504 3.0907 -1.0449 -5.4926 -2.4249 1.5689 0.0000 -0.0000 -12.1353 -4.9752 0.6284 5.4393 -0.0000 0.0000 0.5596 4.3237 0.8345 -0.1620 -0.0000 -0.0000 -8.8823 4.9842 -8.9913 7.8152 -0.0000 -0.0000 -13.8410 -5.1082 -3.8109 -30.4914 -0.5500 -50.9391 -101.3554 10.0335 38.1180 151.0023 0.0000 -28.0302 2.7640 22.9036 -7.0715 32.8623 0.0000 -24.3270 18.6241 20.4173 10.2210 -144.7583 -78.7431 114.5969 -96.4754 -0.0000 46.1268 4.0913 -12.2011 18.6983 33.1476 -0.0000 26.2537 12.2882 7.9549 3.1587
 -2.8520 33.2129 0.0132 7.3105 -1.8337 3.0856 -1.0549 -5.4987 -2.3990 1.4635 -0.0000 0.0000 -12.0549 -4.7996 0.6312 5.4346 -0.0000 0.0000 0.5122 4.3253 0.8526 -0.0535 -0.0000 0.0000 -8.9759 5.1649 -8.9736 7.7771 0.0000 -0.0000 -13.8354 -4.8111 -3.7446 -30.4615 -0.4180 -50.8765 -101.4764 9.9107 38.2576 151.1079 0.0000 -27.5073 2.8094 22.7346 -7.2365 32.8623 0.0000 -24.3270 18.7066 20.3985 10.2857 -142.8713 -79.4583 116.2806 -97.1614 -0.0000 45.2703 2.9971 -10.8110 15.5961 33.1476 -0.0000 26.2537 12.1014 7.9533 2.9457
 -2.8538 33.2115 0.0123 7.3250 -2.0160 3.0806 -1.0596 -5.4645 -2.3864 1.3920 0.0000 -0.0000 -12.0003 -4.6613 0.6482 5.4462 0.0000 0.0000 0.4946 4.3272 0.8580 0.0318 0.0000 -0.0000 -9.0602 5.3509 -8.9245 7.8172 0.0000 -0.0000 -13.7972 -4.3869 -3.6252 -30.2423 -0.7053 -50.9121 -102.0110 9.7346 38.5060 151.1667 0.0000 -27.3046 2.6988 22.6606 -6.9754 32.8623 0.0000 -24.3270 18.7796 20.2531 10.3313 -141.0364 -80.0482 118.0436 -97.8605 -0.0000 44.3083 2.1967 -10.0337 12.4164 33.1476 -0.0000 26.2537 11.9260 7.8769 2.6946
 -2.8567 33.2098 0.0127 7.3180 -2.1512 3.0708 -1.0362 -5.4280 -2.3689 1.3281 0.0000 0.0000 -11.9532 -4.5632 0.6629 5.4404 0.0000 -0.0000 0.4879 4.3342 0.8701 0.1220 -0.0000 -0.0000 -9.1446 5.4853 -8.8761 7.7961 -0.0000 0.0000 -13.7437 -4.0077 -3.5286 -30.0301 -0.9582 -50.9574 -102.4217 9.5705 38.6672 151.2044 0.0000 -26.9064 2.6704 22.6545 -6.9043 32.8623 0.0000 -24.3270 18.7881 20.1143 10.3826 -139.3248 -80.5542 119.7895 -98.6388 -0.0000 43.7947 1.5856 -9.4576 9.5621 33.1476 -0.0000 26.2537 11.7270 7.7807 2.4919
 -2.8582 33.2077 0.0110 7.3189 -2.2253 3.0672 -1.0250 -5.3904 -2.3621 1.2817 -0.0000 -0.0000 -11.9342 -4.5308 0.6670 5.4430 -0.0000 0.0000 0.4483 4.3413 0.8739 0.2289 0.0000 0.0000 -9.2296 5.5617 -8.8300 7.7923 0.0000 -0.0000 -13.6991 -3.6911 -3.4514 -29.8818 -1.1185 -50.9597 -102.7676 9.4280 38.7865 151.1975 0.0000 -26.8549 2.5710 22.4488 -6.7065 32.8623 0.0000 -24.3270 18.7957 20.0017 10.4004 -138.1464 -80.9645 121.1901 -99.6124 -0.0000 43.6658 0.9190 -8.7302 6.0330 33.1476 -0.0000 26.2537 11.5235 7.6931 2.3461
 -2.8557 33.2042 0.0131 7.3419 -2.2460 3.0561 -1.0262 -5.4055 -2.3572 1.2350 0.0000 -0.0000 -11.9299 -4.4977 0.7319 5.4984 -0.0000 0.0000 0.3869 4.3036 0.8779 0.3253 0.0000 -0.0000 -9.3181 5.6384 -8.7639 7.7637 -0.0000 -0.0000 -13.7924 -2.9445 -3.2244 -29.3183 -2.0125 -51.3179 -103.3843 9.6071 39.0612 151.0928 0.0000 -26.5400 2.4895 22.4428 -6.4973 32.8623 0.0000 -24.3270 18.9486 19.2155 10.4231 -136.8143 -81.3926 122.9527 -100.9139 -0.0000 43.4328 0.1407 -7.8462 1.0308 33.1476 -0.0000 26.2537 11.7222 7.1639 1.8512
 -2.8522 33.2015 0.0097 7.3247 -2.2145 3.0639 -1.0106 -5.4755 -2.3756 1.2153 0.0000 -0.0000 -11.9814 -4.4734 0.8515 5.2920 -0.0000 0.0000 0.3270 4.2847 0.8612 0.4616 0.0000 -0.0000 -9.4058 5.6441 -8.7104 7.7721 -0.0000 -0.0000 -13.6161 -2.8301 -3.1968 -29.1177 -2.4473 -51.2223 -104.1036 9.4921 39.1169 151.0046 0.0000 -26.6875 2.4481 22.4940 -6.3763 32.8623 0.0000 -24.3270 18.6006 19.2580 10.4174 -136.7142 -81.4418 123.4600 -102.2657 -0.0000 42.7734 -0.5910 -6.7585 -5.0096 33.1476 -0.0000 26.2537 11.1589 7.2510 1.7824
 -2.8491 33.2014 0.0084 7.2948 -2.1248 3.0636 -0.9744 -5.5175 -2.3866 1.2234 -0.0000 0.0000 -11.9633 -4.5100 0.8095 5.4920 0.0000 -0.0000 0.2725 4.2486 0.8568 0.5905 0.0000 0.0000 -9.4591 5.6134 -8.7068 7.8170 -0.0000 -0.0000 -13.6494 -2.7274 -3.1455 -29.1945 -2.2124 -51.2685 -103.7122 9.4526 39.2283 151.0416 0.0000 -26.5978 2.3797 22.3928 -6.2257 32.8623 0.0000 -24.3270 18.5094 18.9382 10.4651 -136.0852 -81.2891 124.7282 -103.4245 -0.0000 41.9238 -1.0634 -6.1137 -9.8866 33.1476 -0.0000 26.2537 11.2478 7.3141 1.6358
 -2.8442 33.1997 0.0095 7.2438 -2.0033 3.0730 -0.9075 -5.5987 -2.4088 1.2177 -0.0000 -0.0000 -11.9991 -4.5498 0.7902 5.5321 -0.0000 -0.0000 0.2481 4.2269 0.8367 0.6966 -0.0000 -0.0000 -9.5042 5.5395 -8.7032 7.8032 -0.0000 -0.0000 -13.5272 -2.7233 -3.1093 -29.0762 -2.4817 -51.2500 -104.0676 9.4097 39.2963 151.0352 0.0000 -26.6058 2.3633 22.3092 -6.2048 32.8623 0.0000 -24.3270 18.1197 18.7447 10.4561 -138.1687 -80.7075 123.2662 -104.3455 -0.0000 41.3555 -1.2541 -5.5914 -12.6628 33.1476 -0.0000 26.2537 10.9399 7.4829 1.5226
 -2.8409 33.1998 0.0020 7.2213 -1.8178 3.0764 -0.8978 -5.6860 -2.4191 1.2511 -0.0000 0.0000 -12.0618 -4.6631 0.8588 5.3142 -0.0000 -0.0000 0.1394 4.2144 0.8336 0.8552 0.0000 0.0000 -9.5444 5.3735 -8.7271 7.7556 0.0000 0.0000 -13.4580 -2.8998 -3.1024 -29.1771 -2.3409 -51.1971 -104.0121 9.3404 39.3171 151.0618 0.0000 -26.6064 2.2748 22.2334 -5.9930 32.8623 0.0000 -24.3270 17.6621 18.4973 10.4919 -140.2987 -79.8050 121.7785 -105.1377 -0.0000 41.3487 -1.5314 -5.8683 -14.6536 33.1476 -0.0000 26.2537 10.7062 7.7924 1.4403
 -2.8344 33.2017 -0.0101 7.2758 -1.5974 3.0801 -0.9806 -5.7647 -2.4366 1.3161 -0.0000 -0.0000 -12.1007 -4.7809 0.8180 5.2770 0.0000 -0.0000 -0.0609 4.1894 0.8249 1.0114 0.0000 0.0000 -9.5619 5.2096 -8.7585 7.7150 0.0000 -0.0000 -13.5023 -2.9650 -3.0248 -29.1242 -2.4896 -51.2607 -104.1861 9.3927 39.4039 151.0312 0.0000 -26.5163 2.1693 22.2351 -5.7163 32.8623 0.0000 -24.3270 17.2571 17.9413 10.4445 -142.4791 -78.5583 120.3576 -105.6274 -0.0000 40.3432 -2.0140 -7.1350 -15.8079 33.1476 -0.0000 26.2537 10.6006 7.9521 1.1808
